<svg xmlns="http://www.w3.org/2000/svg" version="1.1" xmlns:xlink="http://www.w3.org/1999/xlink" xmlns:svgjs="http://svgjs.dev/svgjs" width="1500" height="1500" viewBox="0 0 1500 1500"><rect width="1500" height="1500" fill="#293040"></rect><g transform="matrix(0.6666666666666666,0,0,0.6666666666666666,249.39393939393938,494.2966460176981)"><svg viewBox="0 0 396 203" data-background-color="#293040" preserveAspectRatio="xMidYMid meet" height="768" width="1500" xmlns="http://www.w3.org/2000/svg" xmlns:xlink="http://www.w3.org/1999/xlink"><g id="tight-bounds" transform="matrix(1,0,0,1,0.2400000000000091,-0.11761551092325817)"><svg viewBox="0 0 395.52 203.23523102184652" height="203.23523102184652" width="395.52"><g><svg viewBox="0 0 395.52 203.23523102184652" height="203.23523102184652" width="395.52"><g transform="matrix(1,0,0,1,0,125.60752616459772)"><svg viewBox="0 0 395.52 77.62770485724879" height="77.62770485724879" width="395.52"><g id="textblocktransform"><svg viewBox="0 0 395.52 77.62770485724879" height="77.62770485724879" width="395.52" id="textblock"><g><svg viewBox="0 0 395.52 77.62770485724879" height="77.62770485724879" width="395.52"><g transform="matrix(1,0,0,1,0,0)"><svg width="395.52" viewBox="1.49 -38.11 197.51999999999998 38.769999999999996" height="77.62770485724879" data-palette-color="#d5b263"><path d="M2.71-25.95L2.71-36.01 3.44-36.65 8.11-36.01 28.15-36.01 28.66-33.79 25.71-30.25 7.79-2.86 24.29-2.86 27.39-10.06 28.39-10.06 28.39 0 27.66 0.66 23 0 2 0 1.49-2.2 4.44-5.76 22.09-33.15 6.74-33.15 3.71-25.95 2.71-25.95ZM54.95-13.06L54.25-12.35 38.45-12.35Q38.47-9.62 39.23-7.59 39.99-5.57 41.28-4.42 42.58-3.27 44.13-2.73 45.68-2.2 47.51-2.2L47.51-2.2Q50.05-2.2 52.95-3.91L52.95-3.91 53.71-2.44Q51.66-0.63 49.61-0.01 47.56 0.61 44.94 0.61L44.94 0.61Q42.67 0.61 40.57-0.35 38.47-1.32 36.89-3.02 35.3-4.71 34.35-7.18 33.4-9.64 33.4-12.5L33.4-12.5Q33.4-15.21 34.09-17.44 34.79-19.68 35.94-21.17 37.08-22.66 38.61-23.68 40.13-24.71 41.73-25.16 43.33-25.61 44.99-25.61L44.99-25.61Q47.07-25.61 48.84-24.84 50.61-24.07 51.99-22.57 53.37-21.07 54.16-18.63 54.95-16.19 54.95-13.06L54.95-13.06ZM45.09-23.24L45.09-23.24Q42.28-23.24 40.61-21.02 38.94-18.8 38.55-14.94L38.55-14.94 50.19-14.94Q50.19-18.85 48.87-21.04 47.56-23.24 45.09-23.24ZM67.7-2.76L71.94-1 71.94 0 58.71 0 58.71-1 63.2-2.76 63.2-21.09 58.71-22.85 58.71-23.85 67.21-25.61 67.7-25.1 67.7-22.14Q69.43-23.75 71.75-24.68 74.07-25.61 76.31-25.61L76.31-25.61Q79.58-25.61 81.75-23.61 83.91-21.61 83.91-17.65L83.91-17.65 83.91-2.76 88.4-1 88.4 0 75.14 0 75.14-1 79.41-2.76 79.41-16.16Q79.41-19.68 78.16-21.04 76.9-22.41 73.85-22.41L73.85-22.41Q70.21-22.41 67.7-20.24L67.7-20.24 67.7-2.76ZM119.74-10.79L119.79-0.9Q115.52 0.61 111.05 0.61L111.05 0.61Q108.02 0.61 105.28-0.06 102.53-0.73 100.13-2.2 97.72-3.66 95.95-5.76 94.18-7.86 93.17-10.9 92.16-13.94 92.16-17.6L92.16-17.6Q92.16-22.19 93.64-25.89 95.13-29.59 97.71-31.95 100.29-34.3 103.7-35.55 107.12-36.79 111.05-36.79L111.05-36.79Q115.2-36.79 119.45-35.45L119.45-35.45 119.4-26.15 118.4-26.15 115.35-33.11Q113.3-34.01 109.95-34.01L109.95-34.01Q108-34.01 106.27-33.5 104.53-32.98 102.93-31.79 101.34-30.59 100.18-28.77 99.02-26.95 98.33-24.17 97.65-21.39 97.65-17.9L97.65-17.9Q97.65-14.18 98.74-11.15 99.82-8.11 101.7-6.14 103.58-4.17 106.06-3.11 108.54-2.05 111.35-2.05L111.35-2.05Q113.84-2.05 116.06-2.76L116.06-2.76 118.74-10.79 119.74-10.79ZM132.56-2.76L136.81-1 136.81 0 123.55 0 123.55-1 128.07-2.76 128.07-33.59 123.55-35.35 123.55-36.35 132.07-38.11 132.56-37.6 132.56-22.14Q134.27-23.75 136.59-24.68 138.91-25.61 141.15-25.61L141.15-25.61Q144.45-25.61 146.61-23.61 148.77-21.61 148.77-17.65L148.77-17.65 148.77-2.76 153.26-1 153.26 0 140 0 140-1 144.25-2.76 144.25-16.16Q144.25-19.68 143.01-21.04 141.76-22.41 138.71-22.41L138.71-22.41Q135.07-22.41 132.56-20.24L132.56-20.24 132.56-2.76ZM175.26-3.39L179.77-2.15 179.77-1.25 174.47 0.39Q172.91 0.73 171.84 0.04 170.76-0.66 170.76-2.34L170.76-2.34Q167.59 0.61 163.32 0.61L163.32 0.61Q159.78 0.61 158.02-1.22 156.26-3.05 156.26-5.81L156.26-5.81Q156.26-7.89 157.19-9.48 158.12-11.08 159.56-12.04 161-12.99 163-13.62 165-14.26 166.86-14.5 168.71-14.75 170.76-14.79L170.76-14.79 170.76-17.14Q170.76-20.56 169.69-21.9 168.62-23.24 166.13-23.24L166.13-23.24Q164.25-23.24 161.71-22.66L161.71-22.66 159.12-16.99 157.92-16.99 157.92-23.95Q160.12-24.73 162.56-25.17 165-25.61 166.86-25.61L166.86-25.61Q170.89-25.61 173.07-23.99 175.26-22.36 175.26-18.65L175.26-18.65 175.26-3.39ZM165.37-2.25L165.37-2.25Q166.76-2.25 168.22-2.92 169.69-3.59 170.76-4.76L170.76-4.76 170.76-12.79Q165.88-12.57 163.32-10.8 160.75-9.03 160.75-6.3L160.75-6.3Q160.75-4.2 162.1-3.22 163.44-2.25 165.37-2.25ZM198.25-23.1L190.24-21.61 190.24-8.01Q190.24-6.35 190.5-5.22 190.76-4.1 191.26-3.55 191.76-3 192.32-2.8 192.88-2.59 193.66-2.59L193.66-2.59Q195.13-2.59 196.12-2.84 197.1-3.1 198.25-3.81L198.25-3.81 199.01-2.25Q195.57 0.61 191.46 0.61L191.46 0.61Q189.07 0.61 187.41-1.28 185.75-3.17 185.75-6.59L185.75-6.59 185.75-21.61 181.21-22.85 181.21-23.85 185.95-24.85 187.75-31.59 190.24-31.59 190.24-24.85 197.4-24.85 198.25-24.56 198.25-23.1Z" opacity="1" transform="matrix(1,0,0,1,0,0)" fill="#d5b263" class="wordmark-text-0" data-fill-palette-color="primary" id="text-0"></path></svg></g></svg></g></svg></g></svg></g><g transform="matrix(1,0,0,1,144.11925594364106,0)"><svg viewBox="0 0 107.28148811271785 107.28148811271785" height="107.28148811271785" width="107.28148811271785"><g><svg></svg></g><g id="icon-0"><svg viewBox="0 0 107.28148811271785 107.28148811271785" height="107.28148811271785" width="107.28148811271785"><g><path transform="scale(1.07281,1.07281)" d="M30 100c-16.569 0-30-13.431-30-30v-40c0-16.569 13.431-30 30-30h40c16.569 0 30 13.431 30 30v40c0 16.569-13.431 30-30 30z" fill="#c9ad8b" fill-rule="nonzero" stroke="none" stroke-width="1" stroke-linecap="butt" stroke-linejoin="miter" stroke-miterlimit="10" stroke-dasharray="" stroke-dashoffset="0" font-family="none" font-weight="none" font-size="none" text-anchor="none" style="mix-blend-mode: normal" data-fill-palette-color="accent"></path></g><g transform="matrix(1,0,0,1,21.456297622543573,43.83807688253952)"><svg viewBox="0 0 64.3688928676307 19.605334347638813" height="19.605334347638813" width="64.3688928676307"><g><svg xmlns="http://www.w3.org/2000/svg" xmlns:xlink="http://www.w3.org/1999/xlink" version="1.1" x="0" y="0" viewBox="5 36.294 90 27.412000000000006" enable-background="new 0 0 100 100" xml:space="preserve" height="19.605334347638813" width="64.3688928676307" class="icon-cg-0" data-fill-palette-color="quaternary" id="cg-0"><path d="M81.189 49.894c-2.743 0-5.297 0.811-7.444 2.19-3.182-3.521-7.766-5.75-12.887-5.75-2.24 0-4.377 0.441-6.344 1.213-4.987-6.81-13.016-11.253-22.106-11.253C17.271 36.294 5 48.568 5 63.706h90C95 56.078 88.818 49.894 81.189 49.894z" fill="#293040" data-fill-palette-color="quaternary"></path></svg></g></svg></g></svg></g></svg></g><g></g></svg></g><defs></defs></svg><rect width="395.52" height="203.23523102184652" fill="none" stroke="none" visibility="hidden"></rect></g></svg></g></svg>